<?xml version="1.0" encoding="utf-8"?>
<!-- Svg Vector Icons : http://www.onlinewebfonts.com/icon -->
<!DOCTYPE svg PUBLIC "-//W3C//DTD SVG 1.1//EN" "http://www.w3.org/Graphics/SVG/1.1/DTD/svg11.dtd">
<svg version="1.1" xmlns="http://www.w3.org/2000/svg" xmlns:xlink="http://www.w3.org/1999/xlink" x="0px" y="0px" viewBox="0 0 1000 1000" enable-background="new 0 0 1000 1000" xml:space="preserve" fill="#00FF00">
<metadata> Svg Vector Icons : http://www.onlinewebfonts.com/icon </metadata>
<g><g transform="translate(0.000000,511.000000) scale(0.100000,-0.100000)"><path d="M8266.7,4631.5L7898.2,4263l633.4-633.4l631.4-631.4l368.5,368.5l368.5,368.5l-633.4,633.4L8635.2,5000L8266.7,4631.5z"/><path d="M100-397.9V-4780h3390.2h3390.2l1001.9,999.9l1001.9,1001.9v2460v2460L8685,1942.5l-199.2-199.2V-322.2v-2067.5H7479.9H6474v-995.9v-995.9H3486.2H498.4v3983.7v3983.7h3073.5h3071.5l199.2,199.2l199.2,199.2H3569.8H100V-397.9z M7908.1-3198.5c-225.1-225.1-549.7-543.8-721.1-709.1l-314.7-298.8v709.1v709.1h721.1h723L7908.1-3198.5z"/><path d="M5717.1,2082L3814.8,179.7l69.7-69.7l69.7-69.7l1902.2,1902.2l1902.2,1902.2l-69.7,69.7l-69.7,69.7L5717.1,2082z"/><path d="M6139.4,1647.7L4243.1-248.5l209.1-209.2l209.1-209.1l1902.2,1902.2l1902.2,1902.2l-203.2,203.2c-113.5,113.5-209.1,205.2-215.1,205.2C8041.6,3546,7183.1,2691.5,6139.4,1647.7z"/><path d="M6836.5,950.6L4938.3-947.7l71.7-67.7l71.7-67.7L6981.9,817.1l1902.2,1902.2l-63.8,63.7c-35.8,35.8-67.7,65.7-73.7,65.7C8738.7,2848.8,7880.2,1994.3,6836.5,950.6z"/><path d="M3657.5-13.5c-6-19.9-63.7-219.1-129.5-444.2c-163.3-557.7-340.6-1254.9-320.7-1254.9c57.8,0,1513.8,400.4,1711,470.1c19.9,6-181.3,221.1-595.6,635.4c-344.6,344.6-633.4,627.4-641.4,627.4C3673.4,20.4,3663.5,4.4,3657.5-13.5z M4183.3-746.5c300.8-300.8,378.5-390.4,352.6-400.4c-17.9-6-147.4-45.8-286.8-87.7l-255-75.7L3796.9-1115l-195.2,193.2l33.9,117.5c85.6,298.8,133.5,446.2,145.4,446.2C3788.9-358.1,3970.2-533.4,4183.3-746.5z"/><path d="M2388.7-1417.8c-89.6-113.5-193.2-251-231.1-306.7l-67.7-101.6l-302.8-11.9c-362.5-15.9-416.3-27.9-442.2-99.6c-13.9-43.8-10-61.8,19.9-91.6c37.8-35.8,55.8-37.8,302.8-15.9c145.4,12,268.9,15.9,274.9,10c6-4-21.9-79.7-61.8-163.3c-284.8-617.5-65.7-1209.1,500-1356.5c412.3-105.6,812.7,83.7,995.9,474.1c163.3,344.6,121.5,687.2-115.5,916.3c-173.3,169.3-412.3,266.9-756.9,310.7c-85.7,10-161.3,21.9-165.3,27.9c-6,4,75.7,119.5,181.3,253c103.6,133.5,189.2,253,189.2,262.9c0,51.8-45.8,95.6-99.6,95.6C2558-1214.6,2528.1-1242.5,2388.7-1417.8z M2701.4-2091c260.9-67.7,424.3-175.3,513.9-338.6c103.6-189.2,61.7-496-95.6-703.1c-288.8-382.4-922.2-312.7-1111.5,121.5c-55.8,133.5-67.7,342.6-27.9,498c37.8,139.4,109.6,310.7,175.3,418.3l41.8,67.7l179.3-13.9C2476.3-2049.2,2621.7-2071.1,2701.4-2091z"/></g></g>
</svg>